<?xml version="1.0" encoding="UTF-8"?>
<!--Generator: Apple Native CoreSVG 123-->
<!DOCTYPE svg
PUBLIC "-//W3C//DTD SVG 1.1//EN"
       "http://www.w3.org/Graphics/SVG/1.1/DTD/svg11.dtd">
<svg version="1.1" xmlns="http://www.w3.org/2000/svg" xmlns:xlink="http://www.w3.org/1999/xlink" width="3300" height="2200">
 <!--glyph: "uni1007A0.medium", point size: 100.000000, font version: "Version 15.0d7e11", template writer version: "5"-->
 <g id="Notes">
  <rect height="2200" id="artboard" style="fill:white;opacity:1" width="3300" x="0" y="0"/>
  <line id="" style="fill:none;stroke:black;opacity:1;stroke-width:0.5;" x1="263" x2="3036" y1="292" y2="292"/>
  <text style="stroke:none;fill:black;font-family:-apple-system,&quot;SF Pro Display&quot;,&quot;SF Pro Text&quot;,Helvetica,sans-serif;font-weight:bold;" transform="matrix(1 0 0 1 263 322)">Weight/Scale Variations</text>
  <text style="stroke:none;fill:black;font-family:-apple-system,&quot;SF Pro Display&quot;,&quot;SF Pro Text&quot;,Helvetica,sans-serif;text-anchor:middle;" transform="matrix(1 0 0 1 559.711 322)">Ultralight</text>
  <text style="stroke:none;fill:black;font-family:-apple-system,&quot;SF Pro Display&quot;,&quot;SF Pro Text&quot;,Helvetica,sans-serif;text-anchor:middle;" transform="matrix(1 0 0 1 856.422 322)">Thin</text>
  <text style="stroke:none;fill:black;font-family:-apple-system,&quot;SF Pro Display&quot;,&quot;SF Pro Text&quot;,Helvetica,sans-serif;text-anchor:middle;" transform="matrix(1 0 0 1 1153.13 322)">Light</text>
  <text style="stroke:none;fill:black;font-family:-apple-system,&quot;SF Pro Display&quot;,&quot;SF Pro Text&quot;,Helvetica,sans-serif;text-anchor:middle;" transform="matrix(1 0 0 1 1449.84 322)">Regular</text>
  <text style="stroke:none;fill:black;font-family:-apple-system,&quot;SF Pro Display&quot;,&quot;SF Pro Text&quot;,Helvetica,sans-serif;text-anchor:middle;" transform="matrix(1 0 0 1 1746.56 322)">Medium</text>
  <text style="stroke:none;fill:black;font-family:-apple-system,&quot;SF Pro Display&quot;,&quot;SF Pro Text&quot;,Helvetica,sans-serif;text-anchor:middle;" transform="matrix(1 0 0 1 2043.27 322)">Semibold</text>
  <text style="stroke:none;fill:black;font-family:-apple-system,&quot;SF Pro Display&quot;,&quot;SF Pro Text&quot;,Helvetica,sans-serif;text-anchor:middle;" transform="matrix(1 0 0 1 2339.98 322)">Bold</text>
  <text style="stroke:none;fill:black;font-family:-apple-system,&quot;SF Pro Display&quot;,&quot;SF Pro Text&quot;,Helvetica,sans-serif;text-anchor:middle;" transform="matrix(1 0 0 1 2636.69 322)">Heavy</text>
  <text style="stroke:none;fill:black;font-family:-apple-system,&quot;SF Pro Display&quot;,&quot;SF Pro Text&quot;,Helvetica,sans-serif;text-anchor:middle;" transform="matrix(1 0 0 1 2933.4 322)">Black</text>
  <line id="" style="fill:none;stroke:black;opacity:1;stroke-width:0.5;" x1="263" x2="3036" y1="1903" y2="1903"/>
  <g id="" transform="matrix(1 0 0 1 263 1933)">
   <path d="M 9.24805 0.830078 C 13.5547 0.830078 17.1387 -2.74414 17.1387 -7.05078 C 17.1387 -11.3574 13.5449 -14.9316 9.23828 -14.9316 C 4.94141 -14.9316 1.36719 -11.3574 1.36719 -7.05078 C 1.36719 -2.74414 4.95117 0.830078 9.24805 0.830078 Z M 9.24805 -0.654297 C 5.70312 -0.654297 2.87109 -3.49609 2.87109 -7.05078 C 2.87109 -10.6055 5.69336 -13.4473 9.23828 -13.4473 C 12.793 -13.4473 15.6348 -10.6055 15.6445 -7.05078 C 15.6543 -3.49609 12.8027 -0.654297 9.24805 -0.654297 Z M 9.22852 -3.42773 C 9.69727 -3.42773 9.9707 -3.74023 9.9707 -4.25781 L 9.9707 -6.31836 L 12.1973 -6.31836 C 12.6953 -6.31836 13.0371 -6.57227 13.0371 -7.04102 C 13.0371 -7.51953 12.7148 -7.7832 12.1973 -7.7832 L 9.9707 -7.7832 L 9.9707 -10.0098 C 9.9707 -10.5273 9.69727 -10.8496 9.22852 -10.8496 C 8.75977 -10.8496 8.50586 -10.5078 8.50586 -10.0098 L 8.50586 -7.7832 L 6.29883 -7.7832 C 5.78125 -7.7832 5.44922 -7.51953 5.44922 -7.04102 C 5.44922 -6.57227 5.80078 -6.31836 6.29883 -6.31836 L 8.50586 -6.31836 L 8.50586 -4.25781 C 8.50586 -3.75977 8.75977 -3.42773 9.22852 -3.42773 Z"/>
  </g>
  <g id="" transform="matrix(1 0 0 1 281.506 1933)">
   <path d="M 11.709 2.91016 C 17.1582 2.91016 21.6699 -1.60156 21.6699 -7.05078 C 21.6699 -12.4902 17.1484 -17.0117 11.6992 -17.0117 C 6.25977 -17.0117 1.74805 -12.4902 1.74805 -7.05078 C 1.74805 -1.60156 6.26953 2.91016 11.709 2.91016 Z M 11.709 1.25 C 7.09961 1.25 3.41797 -2.44141 3.41797 -7.05078 C 3.41797 -11.6504 7.08984 -15.3516 11.6992 -15.3516 C 16.3086 -15.3516 20 -11.6504 20.0098 -7.05078 C 20.0195 -2.44141 16.3184 1.25 11.709 1.25 Z M 11.6895 -2.41211 C 12.207 -2.41211 12.5195 -2.77344 12.5195 -3.33984 L 12.5195 -6.23047 L 15.5762 -6.23047 C 16.123 -6.23047 16.5039 -6.51367 16.5039 -7.03125 C 16.5039 -7.55859 16.1426 -7.86133 15.5762 -7.86133 L 12.5195 -7.86133 L 12.5195 -10.9277 C 12.5195 -11.5039 12.207 -11.8555 11.6895 -11.8555 C 11.1719 -11.8555 10.8789 -11.4844 10.8789 -10.9277 L 10.8789 -7.86133 L 7.83203 -7.86133 C 7.26562 -7.86133 6.89453 -7.55859 6.89453 -7.03125 C 6.89453 -6.51367 7.28516 -6.23047 7.83203 -6.23047 L 10.8789 -6.23047 L 10.8789 -3.33984 C 10.8789 -2.79297 11.1719 -2.41211 11.6895 -2.41211 Z"/>
  </g>
  <g id="" transform="matrix(1 0 0 1 304.924 1933)">
   <path d="M 14.9707 5.67383 C 21.9336 5.67383 27.6953 -0.078125 27.6953 -7.04102 C 27.6953 -14.0039 21.9238 -19.7559 14.9609 -19.7559 C 8.00781 -19.7559 2.25586 -14.0039 2.25586 -7.04102 C 2.25586 -0.078125 8.01758 5.67383 14.9707 5.67383 Z M 14.9707 3.85742 C 8.93555 3.85742 4.08203 -1.00586 4.08203 -7.04102 C 4.08203 -13.0762 8.92578 -17.9395 14.9609 -17.9395 C 21.0059 -17.9395 25.8594 -13.0762 25.8691 -7.04102 C 25.8789 -1.00586 21.0156 3.85742 14.9707 3.85742 Z M 14.9512 -1.06445 C 15.5176 -1.06445 15.8691 -1.45508 15.8691 -2.06055 L 15.8691 -6.13281 L 20.1074 -6.13281 C 20.6934 -6.13281 21.1133 -6.46484 21.1133 -7.02148 C 21.1133 -7.59766 20.7227 -7.93945 20.1074 -7.93945 L 15.8691 -7.93945 L 15.8691 -12.1875 C 15.8691 -12.8027 15.5176 -13.1934 14.9512 -13.1934 C 14.3848 -13.1934 14.0625 -12.7832 14.0625 -12.1875 L 14.0625 -7.93945 L 9.83398 -7.93945 C 9.21875 -7.93945 8.80859 -7.59766 8.80859 -7.02148 C 8.80859 -6.46484 9.23828 -6.13281 9.83398 -6.13281 L 14.0625 -6.13281 L 14.0625 -2.06055 C 14.0625 -1.47461 14.3848 -1.06445 14.9512 -1.06445 Z"/>
  </g>
  <text style="stroke:none;fill:black;font-family:-apple-system,&quot;SF Pro Display&quot;,&quot;SF Pro Text&quot;,Helvetica,sans-serif;font-weight:bold;" transform="matrix(1 0 0 1 263 1953)">Design Variations</text>
  <text style="stroke:none;fill:black;font-family:-apple-system,&quot;SF Pro Display&quot;,&quot;SF Pro Text&quot;,Helvetica,sans-serif;" transform="matrix(1 0 0 1 263 1971)">Symbols are supported in up to nine weights and three scales.</text>
  <text style="stroke:none;fill:black;font-family:-apple-system,&quot;SF Pro Display&quot;,&quot;SF Pro Text&quot;,Helvetica,sans-serif;" transform="matrix(1 0 0 1 263 1989)">For optimal layout with text and other symbols, vertically align</text>
  <text style="stroke:none;fill:black;font-family:-apple-system,&quot;SF Pro Display&quot;,&quot;SF Pro Text&quot;,Helvetica,sans-serif;" transform="matrix(1 0 0 1 263 2007)">symbols with the adjacent text.</text>
  <rect height="14" id="" style="fill:#00AEEF;stroke:none;opacity:0.4;" width="3" x="776" y="1919"/>
  <g id="" transform="matrix(1 0 0 1 779 1933)">
   <path d="M 10.5273 0 L 12.373 0 L 7.17773 -14.0918 L 5.43945 -14.0918 L 0.244141 0 L 2.08984 0 L 3.50586 -4.0332 L 9.11133 -4.0332 Z M 6.2793 -11.9531 L 6.33789 -11.9531 L 8.59375 -5.52734 L 4.02344 -5.52734 Z"/>
  </g>
  <rect height="14" id="" style="fill:#00AEEF;stroke:none;opacity:0.4;" width="3" x="791.617" y="1919"/>
  <text style="stroke:none;fill:black;font-family:-apple-system,&quot;SF Pro Display&quot;,&quot;SF Pro Text&quot;,Helvetica,sans-serif;font-weight:bold;" transform="matrix(1 0 0 1 776 1953)">Margins</text>
  <text style="stroke:none;fill:black;font-family:-apple-system,&quot;SF Pro Display&quot;,&quot;SF Pro Text&quot;,Helvetica,sans-serif;" transform="matrix(1 0 0 1 776 1971)">Leading and trailing margins on the left and right side of each symbol</text>
  <text style="stroke:none;fill:black;font-family:-apple-system,&quot;SF Pro Display&quot;,&quot;SF Pro Text&quot;,Helvetica,sans-serif;" transform="matrix(1 0 0 1 776 1989)">can be adjusted by modifying the width of the blue rectangles.</text>
  <text style="stroke:none;fill:black;font-family:-apple-system,&quot;SF Pro Display&quot;,&quot;SF Pro Text&quot;,Helvetica,sans-serif;" transform="matrix(1 0 0 1 776 2007)">Modifications are automatically applied proportionally to all</text>
  <text style="stroke:none;fill:black;font-family:-apple-system,&quot;SF Pro Display&quot;,&quot;SF Pro Text&quot;,Helvetica,sans-serif;" transform="matrix(1 0 0 1 776 2025)">scales and weights.</text>
  <g id="" transform="matrix(1 0 0 1 1289 1933)">
   <path d="M 2.83203 3.11523 L 4.375 4.6582 C 5.22461 5.48828 6.19141 5.41992 7.06055 4.46289 L 17.2754 -6.66016 C 17.7051 -6.36719 18.0957 -6.37695 18.5645 -6.47461 L 19.6094 -6.68945 L 20.3027 -5.99609 L 20.2539 -5.47852 C 20.1855 -4.95117 20.3516 -4.53125 20.8496 -4.0332 L 21.6602 -3.22266 C 22.168 -2.71484 22.8223 -2.68555 23.3008 -3.16406 L 26.5527 -6.41602 C 27.0312 -6.89453 27.0117 -7.54883 26.5039 -8.05664 L 25.6836 -8.87695 C 25.1855 -9.375 24.7754 -9.55078 24.2383 -9.47266 L 23.7109 -9.41406 L 23.0566 -10.0781 L 23.3398 -11.2207 C 23.4863 -11.7871 23.3398 -12.2559 22.7148 -12.8613 L 20.3027 -15.2539 C 16.7578 -18.7793 12.2266 -18.6719 9.11133 -15.5371 C 8.69141 -15.1074 8.64258 -14.5215 8.91602 -14.0918 C 9.15039 -13.7207 9.62891 -13.4961 10.2734 -13.6621 C 11.7871 -14.043 13.3008 -13.9258 14.7852 -12.9199 L 14.1602 -11.3379 C 13.9258 -10.752 13.9453 -10.2734 14.1797 -9.83398 L 3.01758 0.439453 C 2.08008 1.30859 1.97266 2.25586 2.83203 3.11523 Z M 10.6738 -15.1465 C 13.3398 -17.1387 16.6504 -16.8262 19.0527 -14.4141 L 21.6797 -11.8066 C 21.9141 -11.5723 21.9434 -11.3867 21.8848 -11.0938 L 21.5039 -9.53125 L 23.0762 -7.95898 L 24.043 -8.04688 C 24.3262 -8.07617 24.4141 -8.05664 24.6387 -7.83203 L 25.2637 -7.20703 L 22.5098 -4.46289 L 21.8848 -5.07812 C 21.6602 -5.30273 21.6406 -5.40039 21.6699 -5.68359 L 21.7578 -6.64062 L 20.1953 -8.20312 L 18.5742 -7.89062 C 18.291 -7.83203 18.1445 -7.83203 17.9102 -8.07617 L 15.7324 -10.2539 C 15.5078 -10.4883 15.4785 -10.625 15.6055 -10.9473 L 16.5527 -13.2227 C 14.9512 -14.7559 12.8418 -15.6055 10.8008 -14.9512 C 10.7129 -14.9219 10.6445 -14.9414 10.6152 -14.9805 C 10.5859 -15.0293 10.5859 -15.0781 10.6738 -15.1465 Z M 4.10156 2.41211 C 3.61328 1.91406 3.78906 1.61133 4.12109 1.30859 L 15.0781 -8.80859 L 16.3086 -7.57812 L 6.15234 3.34961 C 5.84961 3.68164 5.46875 3.7793 5.06836 3.37891 Z"/>
  </g>
  <text style="stroke:none;fill:black;font-family:-apple-system,&quot;SF Pro Display&quot;,&quot;SF Pro Text&quot;,Helvetica,sans-serif;font-weight:bold;" transform="matrix(1 0 0 1 1289 1953)">Exporting</text>
  <text style="stroke:none;fill:black;font-family:-apple-system,&quot;SF Pro Display&quot;,&quot;SF Pro Text&quot;,Helvetica,sans-serif;" transform="matrix(1 0 0 1 1289 1971)">Symbols should be outlined when exporting to ensure the</text>
  <text style="stroke:none;fill:black;font-family:-apple-system,&quot;SF Pro Display&quot;,&quot;SF Pro Text&quot;,Helvetica,sans-serif;" transform="matrix(1 0 0 1 1289 1989)">design is preserved when submitting to Xcode.</text>
  <text id="template-version" style="stroke:none;fill:black;font-family:-apple-system,&quot;SF Pro Display&quot;,&quot;SF Pro Text&quot;,Helvetica,sans-serif;text-anchor:end;" transform="matrix(1 0 0 1 3036 1933)">Template v.1.0</text>
  <text style="stroke:none;fill:black;font-family:-apple-system,&quot;SF Pro Display&quot;,&quot;SF Pro Text&quot;,Helvetica,sans-serif;text-anchor:end;" transform="matrix(1 0 0 1 3036 1951)">Generated from exclamationmark.shield.fill</text>
  <text style="stroke:none;fill:black;font-family:-apple-system,&quot;SF Pro Display&quot;,&quot;SF Pro Text&quot;,Helvetica,sans-serif;text-anchor:end;" transform="matrix(1 0 0 1 3036 1969)">Typeset at 100 points</text>
  <text style="stroke:none;fill:black;font-family:-apple-system,&quot;SF Pro Display&quot;,&quot;SF Pro Text&quot;,Helvetica,sans-serif;" transform="matrix(1 0 0 1 263 726)">Small</text>
  <text style="stroke:none;fill:black;font-family:-apple-system,&quot;SF Pro Display&quot;,&quot;SF Pro Text&quot;,Helvetica,sans-serif;" transform="matrix(1 0 0 1 263 1156)">Medium</text>
  <text style="stroke:none;fill:black;font-family:-apple-system,&quot;SF Pro Display&quot;,&quot;SF Pro Text&quot;,Helvetica,sans-serif;" transform="matrix(1 0 0 1 263 1586)">Large</text>
 </g>
 <g id="Guides">
  <g id="H-reference" style="fill:#27AAE1;stroke:none;" transform="matrix(1 0 0 1 339 696)">
   <path d="M 54.9316 0 L 57.666 0 L 30.5664 -70.459 L 28.0762 -70.459 L 0.976562 0 L 3.66211 0 L 12.9395 -24.4629 L 45.7031 -24.4629 Z M 29.1992 -67.0898 L 29.4434 -67.0898 L 44.8242 -26.709 L 13.8184 -26.709 Z"/>
  </g>
  <line id="Baseline-S" style="fill:none;stroke:#27AAE1;opacity:1;stroke-width:0.577;" x1="263" x2="3036" y1="696" y2="696"/>
  <line id="Capline-S" style="fill:none;stroke:#27AAE1;opacity:1;stroke-width:0.577;" x1="263" x2="3036" y1="625.541" y2="625.541"/>
  <g id="H-reference" style="fill:#27AAE1;stroke:none;" transform="matrix(1 0 0 1 339 1126)">
   <path d="M 54.9316 0 L 57.666 0 L 30.5664 -70.459 L 28.0762 -70.459 L 0.976562 0 L 3.66211 0 L 12.9395 -24.4629 L 45.7031 -24.4629 Z M 29.1992 -67.0898 L 29.4434 -67.0898 L 44.8242 -26.709 L 13.8184 -26.709 Z"/>
  </g>
  <line id="Baseline-M" style="fill:none;stroke:#27AAE1;opacity:1;stroke-width:0.577;" x1="263" x2="3036" y1="1126" y2="1126"/>
  <line id="Capline-M" style="fill:none;stroke:#27AAE1;opacity:1;stroke-width:0.577;" x1="263" x2="3036" y1="1055.54" y2="1055.54"/>
  <g id="H-reference" style="fill:#27AAE1;stroke:none;" transform="matrix(1 0 0 1 339 1556)">
   <path d="M 54.9316 0 L 57.666 0 L 30.5664 -70.459 L 28.0762 -70.459 L 0.976562 0 L 3.66211 0 L 12.9395 -24.4629 L 45.7031 -24.4629 Z M 29.1992 -67.0898 L 29.4434 -67.0898 L 44.8242 -26.709 L 13.8184 -26.709 Z"/>
  </g>
  <line id="Baseline-L" style="fill:none;stroke:#27AAE1;opacity:1;stroke-width:0.577;" x1="263" x2="3036" y1="1556" y2="1556"/>
  <line id="Capline-L" style="fill:none;stroke:#27AAE1;opacity:1;stroke-width:0.577;" x1="263" x2="3036" y1="1485.54" y2="1485.54"/>
  <rect height="119.336" id="left-margin" style="fill:#00AEEF;stroke:none;opacity:0.4;" width="18.7988" x="1391.1" y="1030.79"/>
  <rect height="119.336" id="right-margin" style="fill:#00AEEF;stroke:none;opacity:0.4;" width="18.7988" x="1489.79" y="1030.79"/>
 </g>
 <g id="Symbols">
  <g id="Black-L" transform="matrix(1 0 0 1 2857.91 1556)">
   <path d="M 75.4883 30.1758 C 76.9043 30.1758 78.7598 29.5898 80.4688 28.7598 C 117.529 10.8887 130.713 -0.341797 130.713 -23.0469 L 130.713 -67.8711 C 130.713 -78.0273 127.637 -82.5684 118.506 -86.377 C 113.428 -88.5742 90.8691 -95.8496 86.2793 -97.2168 C 82.959 -98.1934 78.7109 -98.877 75.4883 -98.877 C 72.2168 -98.877 67.9688 -98.1934 64.6484 -97.2168 C 60.0586 -95.9473 37.5488 -88.5742 32.4219 -86.377 C 23.3398 -82.5684 20.2637 -78.0273 20.2637 -67.8711 L 20.2637 -23.0469 C 20.2637 -0.341797 33.6426 10.5469 70.459 28.7598 C 72.168 29.5898 74.0723 30.1758 75.4883 30.1758 Z M 75.5371 -27.7344 C 70.5078 -27.7344 67.6758 -30.4199 67.3828 -35.3516 L 66.3086 -57.373 C 66.0156 -62.6953 69.8242 -66.3574 75.4395 -66.3574 C 81.1035 -66.3574 84.9121 -62.6953 84.6191 -57.373 L 83.5449 -35.498 C 83.252 -30.3711 80.4688 -27.7344 75.5371 -27.7344 Z M 75.5371 -2.53906 C 69.5312 -2.53906 65.8203 -5.71289 65.8203 -10.9863 C 65.8203 -16.2109 69.5312 -19.3848 75.5371 -19.3848 C 81.2988 -19.3848 85.1562 -16.2109 85.1562 -10.9863 C 85.1562 -5.71289 81.3965 -2.53906 75.5371 -2.53906 Z"/>
  </g>
  <g id="Heavy-L" transform="matrix(1 0 0 1 2561.42 1556)">
   <path d="M 75.293 29.6875 C 76.6113 29.6875 78.418 29.1504 80.0781 28.3203 C 116.748 10.1074 129.492 -0.488281 129.492 -23.0469 L 129.492 -68.457 C 129.492 -77.7832 126.514 -81.7383 118.262 -85.2051 C 112.402 -87.6953 90.1855 -95.0684 84.7168 -96.8262 C 81.7871 -97.6562 78.1738 -98.291 75.293 -98.291 C 72.3633 -98.291 68.75 -97.6562 65.8203 -96.8262 C 60.3516 -95.166 38.1836 -87.6465 32.2754 -85.2051 C 24.0234 -81.7871 21.0938 -77.7832 21.0938 -68.457 L 21.0938 -23.0469 C 21.0938 -0.488281 34.082 9.61914 70.459 28.3203 C 72.1191 29.1504 73.9258 29.6875 75.293 29.6875 Z M 75.3418 -27.1484 C 70.8008 -27.1484 68.2129 -29.6387 67.9688 -34.1309 L 66.9922 -58.5449 C 66.748 -63.3301 70.2148 -66.6504 75.2441 -66.6504 C 80.3223 -66.6504 83.7891 -63.2812 83.5449 -58.4961 L 82.5195 -34.2285 C 82.2754 -29.5898 79.7363 -27.1484 75.3418 -27.1484 Z M 75.3418 -2.68555 C 69.9707 -2.68555 66.3574 -5.76172 66.3574 -10.6445 C 66.3574 -15.4785 69.9219 -18.5059 75.3418 -18.5059 C 80.5176 -18.5059 84.1797 -15.4297 84.1797 -10.6445 C 84.1797 -5.71289 80.6152 -2.68555 75.3418 -2.68555 Z"/>
  </g>
  <g id="Bold-L" transform="matrix(1 0 0 1 2264.93 1556)">
   <path d="M 75.0488 29.1504 C 76.3184 29.1504 78.0273 28.6133 79.6387 27.832 C 115.869 9.27734 128.125 -0.683594 128.125 -22.998 L 128.125 -69.1406 C 128.125 -77.5391 125.293 -80.8594 117.969 -83.8867 C 111.23 -86.6699 89.4043 -94.2383 82.959 -96.3379 C 80.4688 -97.0703 77.5391 -97.6074 75.0488 -97.6074 C 72.5586 -97.6074 69.5801 -97.0703 67.0898 -96.3379 C 60.6445 -94.2383 38.8672 -86.6699 32.1289 -83.8867 C 24.8047 -80.9082 21.9727 -77.5391 21.9727 -69.1406 L 21.9727 -22.998 C 21.9727 -0.683594 34.5703 8.59375 70.459 27.832 C 72.0703 28.6621 73.7793 29.1504 75.0488 29.1504 Z M 75.0488 -26.5137 C 71.0938 -26.5137 68.8477 -28.7598 68.6523 -32.7148 L 67.7246 -59.8145 C 67.5293 -64.0137 70.6055 -66.9434 75 -66.9434 C 79.3945 -66.9434 82.5195 -63.9648 82.3242 -59.7656 L 81.3477 -32.8125 C 81.1523 -28.7109 78.9551 -26.5137 75.0488 -26.5137 Z M 75.0488 -2.83203 C 70.4102 -2.83203 66.9434 -5.81055 66.9434 -10.2051 C 66.9434 -14.5996 70.3613 -17.5293 75.0488 -17.5293 C 79.6875 -17.5293 83.1055 -14.5996 83.1055 -10.2051 C 83.1055 -5.76172 79.6875 -2.83203 75.0488 -2.83203 Z"/>
  </g>
  <g id="Semibold-L" transform="matrix(1 0 0 1 1968.39 1556)">
   <path d="M 74.9023 28.7598 C 76.0742 28.7598 77.7344 28.2715 79.2969 27.4414 C 115.283 8.64258 127.197 -0.830078 127.197 -22.9492 L 127.197 -69.5801 C 127.197 -77.3438 124.463 -80.2246 117.773 -83.0078 C 110.449 -85.9863 88.916 -93.6035 81.7871 -95.9961 C 79.5898 -96.6797 77.0996 -97.1191 74.9023 -97.1191 C 72.6562 -97.1191 70.166 -96.6309 68.0176 -95.9961 C 60.8398 -93.6523 39.3555 -85.9375 32.0312 -83.0078 C 25.3418 -80.2734 22.6074 -77.3438 22.6074 -69.5801 L 22.6074 -22.9492 C 22.6074 -0.830078 34.9121 7.86133 70.459 27.4414 C 72.0215 28.3203 73.6816 28.7598 74.9023 28.7598 Z M 74.9023 -26.0742 C 71.3379 -26.0742 69.2871 -28.125 69.1406 -31.7871 L 68.2617 -60.6934 C 68.1152 -64.4531 70.8496 -67.1387 74.8535 -67.1387 C 78.8086 -67.1387 81.6406 -64.4043 81.4453 -60.6445 L 80.5664 -31.8359 C 80.4199 -28.0762 78.3691 -26.0742 74.9023 -26.0742 Z M 74.9023 -2.92969 C 70.7031 -2.92969 67.3828 -5.81055 67.3828 -9.96094 C 67.3828 -14.0137 70.6543 -16.8945 74.9023 -16.8945 C 79.1016 -16.8945 82.373 -14.0625 82.373 -9.96094 C 82.373 -5.76172 79.0527 -2.92969 74.9023 -2.92969 Z"/>
  </g>
  <g id="Medium-L" transform="matrix(1 0 0 1 1671.8 1556)">
   <path d="M 74.7559 28.4668 C 75.9277 28.4668 77.5391 27.9785 79.0527 27.1973 C 114.844 8.20312 126.465 -0.927734 126.465 -22.9492 L 126.465 -69.9707 C 126.465 -77.1973 123.779 -79.7363 117.578 -82.3242 C 109.814 -85.4492 88.5254 -93.1641 80.8594 -95.752 C 78.9062 -96.3867 76.7578 -96.7773 74.7559 -96.7773 C 72.7539 -96.7773 70.6543 -96.3379 68.7012 -95.752 C 60.9863 -93.1641 39.6973 -85.4492 31.9336 -82.3242 C 25.7324 -79.834 23.0469 -77.1973 23.0469 -69.9707 L 23.0469 -22.9492 C 23.0469 -0.927734 35.2051 7.32422 70.459 27.1973 C 71.9727 28.0273 73.584 28.4668 74.7559 28.4668 Z M 74.7559 -25.7812 C 71.4844 -25.7812 69.6289 -27.6855 69.4824 -31.0547 L 68.6523 -61.377 C 68.5059 -64.7949 71.0938 -67.2852 74.707 -67.2852 C 78.3203 -67.2852 80.957 -64.7949 80.8105 -61.3281 L 79.9316 -31.0547 C 79.834 -27.6367 77.9785 -25.7812 74.7559 -25.7812 Z M 74.7559 -3.02734 C 70.9473 -3.02734 67.6758 -5.85938 67.6758 -9.7168 C 67.6758 -13.5742 70.8984 -16.4062 74.7559 -16.4062 C 78.6133 -16.4062 81.8359 -13.623 81.8359 -9.7168 C 81.8359 -5.81055 78.6133 -3.02734 74.7559 -3.02734 Z"/>
  </g>
  <g id="Regular-L" transform="matrix(1 0 0 1 1375.24 1556)">
   <path d="M 74.6094 28.125 C 75.7324 28.125 77.2461 27.6367 78.7598 26.8555 C 114.258 7.61719 125.537 -1.07422 125.537 -22.9004 L 125.537 -70.4102 C 125.537 -77.002 122.949 -79.1504 117.383 -81.4453 C 109.033 -84.7656 87.9883 -92.5781 79.6387 -95.4102 C 77.9785 -95.9473 76.3184 -96.3379 74.6094 -96.3379 C 72.9004 -96.3379 71.2402 -95.8984 69.5801 -95.4102 C 61.2305 -92.5781 40.1855 -84.7168 31.8359 -81.4453 C 26.2695 -79.248 23.6816 -77.002 23.6816 -70.4102 L 23.6816 -22.9004 C 23.6816 -1.07422 35.5469 6.64062 70.459 26.8555 C 71.9238 27.6855 73.4863 28.125 74.6094 28.125 Z M 74.6094 -25.3418 C 71.7285 -25.3418 70.0684 -27.0508 69.9707 -30.0781 L 69.1895 -62.207 C 69.0918 -65.2832 71.3379 -67.4805 74.5605 -67.4805 C 77.7344 -67.4805 80.0781 -65.2344 79.9805 -62.1582 L 79.1504 -30.0781 C 79.0527 -27.002 77.3926 -25.3418 74.6094 -25.3418 Z M 74.6094 -3.125 C 71.2402 -3.125 68.1152 -5.85938 68.1152 -9.42383 C 68.1152 -12.9883 71.1914 -15.7227 74.6094 -15.7227 C 78.0273 -15.7227 81.1035 -13.0371 81.1035 -9.42383 C 81.1035 -5.81055 77.9785 -3.125 74.6094 -3.125 Z"/>
  </g>
  <g id="Light-L" transform="matrix(1 0 0 1 1080.11 1556)">
   <path d="M 72.998 27.7832 C 74.2676 27.7832 75.8301 27.1973 77.1484 26.4648 C 112.158 6.54297 123.096 -1.2207 123.096 -22.0215 L 123.096 -69.4336 C 123.096 -76.2207 120.85 -78.418 114.844 -80.8105 C 105.176 -84.5703 87.5488 -91.3086 77.8809 -94.6289 C 76.2207 -95.2148 74.6582 -95.5566 72.998 -95.5566 C 71.3867 -95.5566 69.8242 -95.166 68.1641 -94.6289 C 58.4961 -91.1621 40.8691 -84.5703 31.2012 -80.8105 C 25.1953 -78.4668 22.9492 -76.2207 22.9492 -69.4336 L 22.9492 -22.0215 C 22.9492 -1.2207 34.3262 5.71289 68.8965 26.4648 C 70.2148 27.1973 71.7773 27.7832 72.998 27.7832 Z M 72.998 -24.6094 C 70.7031 -24.6094 69.2871 -26.1719 69.2383 -28.7109 L 68.5547 -62.207 C 68.5059 -64.7461 70.3125 -66.5527 72.998 -66.5527 C 75.6348 -66.5527 77.4902 -64.7461 77.4414 -62.1582 L 76.7578 -28.7109 C 76.6602 -26.123 75.293 -24.6094 72.998 -24.6094 Z M 72.998 -3.85742 C 69.9707 -3.85742 67.2852 -6.34766 67.2852 -9.47266 C 67.2852 -12.5977 69.9219 -15.0879 72.998 -15.0879 C 76.0742 -15.0879 78.7598 -12.5977 78.7598 -9.47266 C 78.7598 -6.34766 76.0742 -3.85742 72.998 -3.85742 Z"/>
  </g>
  <g id="Thin-L" transform="matrix(1 0 0 1 785.499 1556)">
   <path d="M 70.8984 27.3438 C 72.3145 27.3438 73.9258 26.5625 75 25.9277 C 109.424 5.07812 119.873 -1.36719 119.873 -20.8496 L 119.873 -68.1641 C 119.873 -75.0977 118.066 -77.4414 111.475 -79.9805 C 100 -84.3262 87.0117 -89.5996 75.4883 -93.6035 C 73.877 -94.1895 72.4609 -94.5801 70.8984 -94.5801 C 69.3359 -94.5801 67.9688 -94.1406 66.3574 -93.6035 C 54.8828 -89.3066 41.7969 -84.3262 30.3711 -79.9805 C 23.7793 -77.4902 21.9727 -75.0977 21.9727 -68.1641 L 21.9727 -20.8496 C 21.9727 -1.36719 32.7148 4.54102 66.7969 25.9277 C 67.9199 26.5625 69.5312 27.3438 70.8984 27.3438 Z M 70.8984 -23.6816 C 69.3359 -23.6816 68.3105 -24.9512 68.2617 -26.8555 L 67.7734 -62.1582 C 67.7246 -64.0625 68.9453 -65.332 70.8984 -65.332 C 72.8516 -65.332 74.0723 -64.0625 74.0723 -62.1582 L 73.5352 -26.8555 C 73.5352 -24.9512 72.4609 -23.6816 70.8984 -23.6816 Z M 70.8984 -4.83398 C 68.3105 -4.83398 66.2109 -7.03125 66.2109 -9.52148 C 66.2109 -12.0117 68.3105 -14.209 70.8984 -14.209 C 73.5352 -14.209 75.5859 -12.0117 75.5859 -9.52148 C 75.5859 -7.03125 73.5352 -4.83398 70.8984 -4.83398 Z"/>
  </g>
  <g id="Ultralight-L" transform="matrix(1 0 0 1 489.887 1556)">
   <path d="M 69.8242 27.0996 C 71.3379 27.0996 72.9492 26.2695 73.9258 25.6348 C 108.057 4.3457 118.213 -1.46484 118.213 -20.2637 L 118.213 -67.5293 C 118.213 -74.5605 116.65 -76.9043 109.717 -79.541 C 97.4121 -84.1797 86.7188 -88.7207 74.2676 -93.0664 C 72.6562 -93.6523 71.3379 -94.043 69.8242 -94.043 C 68.3105 -94.043 66.9922 -93.6523 65.3809 -93.0664 C 53.0762 -88.3789 42.2852 -84.1797 29.9316 -79.541 C 23.0469 -77.002 21.4355 -74.5605 21.4355 -67.5293 L 21.4355 -20.2637 C 21.4355 -1.46484 31.9336 3.90625 65.7227 25.6348 C 66.748 26.2695 68.3594 27.0996 69.8242 27.0996 Z M 69.8242 -23.2422 C 68.6523 -23.2422 67.7734 -24.3652 67.7734 -25.8789 L 67.334 -62.1094 C 67.334 -63.7207 68.2617 -64.7461 69.8242 -64.7461 C 71.4355 -64.7461 72.3145 -63.7207 72.3145 -62.1094 L 71.875 -25.8789 C 71.9238 -24.3652 71.0449 -23.2422 69.8242 -23.2422 Z M 69.8242 -5.37109 C 67.4316 -5.37109 65.6738 -7.37305 65.6738 -9.57031 C 65.6738 -11.7188 67.4316 -13.7207 69.8242 -13.7207 C 72.2168 -13.7207 74.0234 -11.7188 74.0234 -9.57031 C 74.0234 -7.37305 72.2168 -5.37109 69.8242 -5.37109 Z"/>
  </g>
  <g id="Black-M" transform="matrix(1 0 0 1 2875.49 1126)">
   <path d="M 57.9102 15.9668 C 59.1797 15.9668 60.7422 15.3809 62.0605 14.7461 C 90.9668 0.976562 101.611 -8.00781 101.611 -25.3906 L 101.611 -59.2285 C 101.611 -68.2617 99.2676 -72.6074 90.8691 -76.123 C 87.207 -77.6855 71.0938 -82.6172 68.0176 -83.4473 C 64.9414 -84.3262 60.8887 -84.9609 57.9102 -84.9609 C 54.9316 -84.9609 50.8789 -84.3262 47.8027 -83.4473 C 44.7266 -82.5684 28.6133 -77.6855 25 -76.123 C 16.5527 -72.6074 14.209 -68.2617 14.209 -59.2285 L 14.209 -25.3906 C 14.209 -8.00781 24.8047 1.02539 53.7598 14.7461 C 55.0781 15.3809 56.6406 15.9668 57.9102 15.9668 Z M 57.959 -29.7852 C 53.7109 -29.7852 51.2695 -32.0801 51.0254 -36.2793 L 50.1465 -50.8301 C 49.8535 -55.4199 53.0762 -58.4961 57.9102 -58.4961 C 62.793 -58.4961 65.9668 -55.4199 65.6738 -50.8301 L 64.8438 -36.377 C 64.5508 -32.0801 62.1582 -29.7852 57.959 -29.7852 Z M 57.959 -10.1074 C 52.6855 -10.1074 49.8047 -12.5977 49.8047 -16.9922 C 49.8047 -21.2891 52.6855 -23.7305 57.959 -23.7305 C 62.9883 -23.7305 66.0156 -21.2402 66.0156 -16.9922 C 66.0156 -12.5977 63.1348 -10.1074 57.959 -10.1074 Z"/>
  </g>
  <g id="Heavy-M" transform="matrix(1 0 0 1 2578.58 1126)">
   <path d="M 58.1055 15.4785 C 59.2773 15.4785 60.7422 14.9902 62.0117 14.3555 C 90.6738 0.439453 100.928 -8.1543 100.928 -25.5859 L 100.928 -60.1074 C 100.928 -68.2129 98.584 -71.9238 91.2109 -75 C 87.1094 -76.7578 70.459 -82.0801 66.7969 -83.2031 C 64.1113 -83.9355 60.6934 -84.5215 58.1055 -84.5215 C 55.5176 -84.5215 52.0996 -83.9355 49.4141 -83.2031 C 45.752 -82.0801 29.1504 -76.7578 25 -75 C 17.627 -71.9238 15.2832 -68.2129 15.2832 -60.1074 L 15.2832 -25.5859 C 15.2832 -8.1543 25.6348 0.244141 54.1992 14.3555 C 55.4688 14.9902 56.9824 15.4785 58.1055 15.4785 Z M 58.1543 -29.3945 C 54.2969 -29.3945 52.0996 -31.4453 51.8555 -35.2539 L 51.0254 -52.0996 C 50.8301 -56.25 53.7598 -59.0332 58.1055 -59.0332 C 62.5 -59.0332 65.3809 -56.2012 65.1855 -52.0996 L 64.3555 -35.3516 C 64.1113 -31.4453 61.9629 -29.3945 58.1543 -29.3945 Z M 58.1543 -10.0586 C 53.4668 -10.0586 50.6348 -12.5 50.6348 -16.5527 C 50.6348 -20.6055 53.4668 -22.9492 58.1543 -22.9492 C 62.6953 -22.9492 65.5762 -20.5566 65.5762 -16.5527 C 65.5762 -12.5 62.7441 -10.0586 58.1543 -10.0586 Z"/>
  </g>
  <g id="Bold-M" transform="matrix(1 0 0 1 2281.65 1126)">
   <path d="M 58.3496 14.9902 C 59.3262 14.9902 60.7422 14.5508 62.0117 13.916 C 90.3809 -0.195312 100.146 -8.34961 100.146 -25.7812 L 100.146 -61.1328 C 100.146 -68.1641 97.9004 -71.1426 91.6504 -73.7305 C 86.9629 -75.7324 69.7754 -81.4941 65.3809 -82.8613 C 63.1836 -83.5449 60.498 -83.9844 58.3496 -83.9844 C 56.1523 -83.9844 53.4668 -83.4961 51.2695 -82.8613 C 46.875 -81.543 29.6875 -75.6836 25 -73.7305 C 18.7988 -71.1426 16.5039 -68.1641 16.5039 -61.1328 L 16.5039 -25.7812 C 16.5039 -8.34961 26.5137 -0.634766 54.6387 13.916 C 55.9082 14.5996 57.3242 14.9902 58.3496 14.9902 Z M 58.3496 -28.8574 C 54.9316 -28.8574 52.9785 -30.7617 52.832 -34.1797 L 52.0508 -53.5156 C 51.8555 -57.1289 54.4922 -59.6191 58.3008 -59.6191 C 62.1094 -59.6191 64.7461 -57.0801 64.5996 -53.4668 L 63.7695 -34.2285 C 63.623 -30.7129 61.7188 -28.8574 58.3496 -28.8574 Z M 58.3496 -10.0098 C 54.2969 -10.0098 51.5625 -12.4023 51.5625 -16.1133 C 51.5625 -19.7754 54.2969 -22.1191 58.3496 -22.1191 C 62.3047 -22.1191 65.1367 -19.7754 65.1367 -16.1133 C 65.1367 -12.3535 62.3535 -10.0098 58.3496 -10.0098 Z"/>
  </g>
  <g id="Semibold-M" transform="matrix(1 0 0 1 1984.8 1126)">
   <path d="M 58.4961 14.6484 C 59.4238 14.6484 60.7422 14.2578 62.0117 13.623 C 90.1367 -0.634766 99.6094 -8.44727 99.6094 -25.9277 L 99.6094 -61.8164 C 99.6094 -68.1152 97.3633 -70.6055 91.9434 -72.9004 C 86.8652 -75 69.2871 -81.1035 64.4531 -82.666 C 62.5977 -83.252 60.3516 -83.6426 58.4961 -83.6426 C 56.5918 -83.6426 54.3945 -83.2031 52.5391 -82.666 C 47.6562 -81.1523 30.0781 -74.9512 25.0488 -72.9004 C 19.5801 -70.6543 17.334 -68.1152 17.334 -61.8164 L 17.334 -25.9277 C 17.334 -8.44727 27.1484 -1.2207 54.9805 13.623 C 56.25 14.3066 57.5684 14.6484 58.4961 14.6484 Z M 58.4961 -28.5645 C 55.3711 -28.5645 53.6133 -30.2734 53.4668 -33.3984 L 52.7344 -54.4922 C 52.5879 -57.7148 55.0293 -60.0586 58.4473 -60.0586 C 61.8652 -60.0586 64.3066 -57.7148 64.1602 -54.4434 L 63.4277 -33.4473 C 63.2812 -30.2246 61.5234 -28.5645 58.4961 -28.5645 Z M 58.4961 -10.0098 C 54.8828 -10.0098 52.1973 -12.3047 52.1973 -15.7715 C 52.1973 -19.2383 54.8828 -21.5332 58.4961 -21.5332 C 62.0605 -21.5332 64.7949 -19.2383 64.7949 -15.7715 C 64.7949 -12.3047 62.0605 -10.0098 58.4961 -10.0098 Z"/>
  </g>
  <g id="Medium-M" transform="matrix(1 0 0 1 1687.96 1126)">
   <path d="M 58.5938 14.4043 C 59.4727 14.4043 60.7422 14.0625 62.0117 13.4277 C 89.9902 -0.976562 99.2188 -8.54492 99.2188 -26.0742 L 99.2188 -62.3535 C 99.2188 -68.1152 97.0215 -70.2148 92.1387 -72.2168 C 86.8164 -74.4629 68.9453 -80.7617 63.7207 -82.5195 C 62.1094 -83.0078 60.2539 -83.3496 58.5938 -83.3496 C 56.9336 -83.3496 55.0781 -83.0078 53.4668 -82.5195 C 48.2422 -80.8594 30.3711 -74.4141 25.0488 -72.2168 C 20.2148 -70.2637 17.9688 -68.1152 17.9688 -62.3535 L 17.9688 -26.0742 C 17.9688 -8.54492 27.6367 -1.66016 55.2246 13.4277 C 56.4453 14.1113 57.7148 14.4043 58.5938 14.4043 Z M 58.5938 -28.2715 C 55.7129 -28.2715 54.1016 -29.8828 54.0039 -32.8125 L 53.2715 -55.2246 C 53.1738 -58.2031 55.4199 -60.3516 58.5449 -60.3516 C 61.6699 -60.3516 64.0137 -58.1543 63.8672 -55.1758 L 63.1348 -32.8125 C 62.9883 -29.8828 61.377 -28.2715 58.5938 -28.2715 Z M 58.5938 -9.96094 C 55.3711 -9.96094 52.6367 -12.2559 52.6367 -15.5273 C 52.6367 -18.7988 55.3223 -21.0938 58.5938 -21.0938 C 61.8652 -21.0938 64.5508 -18.8477 64.5508 -15.5273 C 64.5508 -12.207 61.8652 -9.96094 58.5938 -9.96094 Z"/>
  </g>
  <g id="Regular-M" transform="matrix(1 0 0 1 1391.1 1126)">
   <path d="M 58.7402 14.0625 C 59.5215 14.0625 60.7422 13.7695 61.9629 13.1348 C 89.7461 -1.41602 98.6816 -8.69141 98.6816 -26.2207 L 98.6816 -63.0371 C 98.6816 -68.0664 96.5332 -69.6777 92.4316 -71.3867 C 86.7188 -73.7305 68.457 -80.3711 62.793 -82.3242 C 61.4746 -82.7637 60.1074 -83.0078 58.7402 -83.0078 C 57.373 -83.0078 56.0059 -82.7148 54.7363 -82.3242 C 49.0234 -80.4688 30.7617 -73.6816 25.0488 -71.3867 C 20.9961 -69.7266 18.7988 -68.0664 18.7988 -63.0371 L 18.7988 -26.2207 C 18.7988 -8.69141 28.2227 -2.24609 55.5176 13.1348 C 56.7871 13.8184 57.959 14.0625 58.7402 14.0625 Z M 58.7402 -27.9297 C 56.2012 -27.9297 54.7363 -29.4434 54.6387 -32.0312 L 54.0039 -56.1523 C 53.9062 -58.8379 55.9082 -60.7422 58.6914 -60.7422 C 61.4258 -60.7422 63.5742 -58.7891 63.4766 -56.1035 L 62.7441 -32.0312 C 62.6465 -29.3945 61.2305 -27.9297 58.7402 -27.9297 Z M 58.7402 -9.96094 C 55.957 -9.96094 53.2715 -12.207 53.2715 -15.2344 C 53.2715 -18.2617 55.9082 -20.5078 58.7402 -20.5078 C 61.6211 -20.5078 64.209 -18.3105 64.209 -15.2344 C 64.209 -12.1582 61.5723 -9.96094 58.7402 -9.96094 Z"/>
  </g>
  <g id="Light-M" transform="matrix(1 0 0 1 1095.81 1126)">
   <path d="M 57.3242 13.7695 C 58.2031 13.7695 59.4238 13.3301 60.5469 12.7441 C 87.8906 -2.39258 96.5332 -8.78906 96.5332 -25.3906 L 96.5332 -62.1582 C 96.5332 -67.334 94.6289 -69.043 90.1367 -70.8008 C 83.252 -73.584 68.0664 -79.248 61.1816 -81.5918 C 59.8633 -82.0312 58.6426 -82.3242 57.3242 -82.3242 C 56.0059 -82.3242 54.7363 -82.0312 53.4668 -81.5918 C 46.582 -79.1992 31.3965 -73.5352 24.4629 -70.8008 C 20.0195 -69.0918 18.1152 -67.334 18.1152 -62.1582 L 18.1152 -25.3906 C 18.1152 -8.78906 27.1484 -3.07617 54.1016 12.7441 C 55.2246 13.3789 56.4453 13.7695 57.3242 13.7695 Z M 57.3242 -27.3438 C 55.2734 -27.3438 54.0527 -28.6133 54.0039 -30.8105 L 53.418 -56.1523 C 53.3691 -58.3496 54.9805 -59.9121 57.2754 -59.9121 C 59.5703 -59.9121 61.2305 -58.3008 61.1816 -56.1035 L 60.5957 -30.8105 C 60.498 -28.5645 59.3262 -27.3438 57.3242 -27.3438 Z M 57.3242 -10.5957 C 54.7852 -10.5957 52.5391 -12.6465 52.5391 -15.2344 C 52.5391 -17.8711 54.7852 -19.9219 57.3242 -19.9219 C 59.8633 -19.9219 62.1094 -17.9199 62.1094 -15.2344 C 62.1094 -12.5977 59.8145 -10.5957 57.3242 -10.5957 Z"/>
  </g>
  <g id="Thin-M" transform="matrix(1 0 0 1 800.978 1126)">
   <path d="M 55.4199 13.3301 C 56.4941 13.3301 57.7148 12.793 58.6426 12.2559 C 85.4492 -3.66211 93.6035 -8.93555 93.6035 -24.3652 L 93.6035 -61.0352 C 93.6035 -66.3574 92.1387 -68.1641 87.1094 -70.0684 C 78.6621 -73.3398 67.5781 -77.7344 59.0332 -80.7129 C 57.7637 -81.1523 56.6406 -81.4453 55.4199 -81.4453 C 54.1992 -81.4453 53.0762 -81.1035 51.8066 -80.7129 C 43.3594 -77.5391 32.2266 -73.3398 23.7305 -70.0684 C 18.75 -68.2129 17.2363 -66.3574 17.2363 -61.0352 L 17.2363 -24.3652 C 17.2363 -8.93555 25.7324 -4.15039 52.2461 12.2559 C 53.125 12.793 54.3945 13.3301 55.4199 13.3301 Z M 55.4199 -26.5137 C 54.0527 -26.5137 53.1738 -27.5391 53.125 -29.1504 L 52.6855 -56.1035 C 52.6855 -57.7148 53.7598 -58.8379 55.4199 -58.8379 C 57.0801 -58.8379 58.1543 -57.7148 58.1543 -56.1035 L 57.7148 -29.1504 C 57.666 -27.5391 56.7871 -26.5137 55.4199 -26.5137 Z M 55.4199 -11.4746 C 53.3203 -11.4746 51.5625 -13.2324 51.5625 -15.2832 C 51.5625 -17.3828 53.3203 -19.0918 55.4199 -19.0918 C 57.5684 -19.0918 59.2773 -17.3828 59.2773 -15.2832 C 59.2773 -13.2324 57.5684 -11.4746 55.4199 -11.4746 Z"/>
  </g>
  <g id="Ultralight-M" transform="matrix(1 0 0 1 505.243 1126)">
   <path d="M 54.4434 13.1348 C 55.6152 13.1348 56.8359 12.5 57.666 12.0117 C 84.1797 -4.3457 92.1387 -9.0332 92.1387 -23.8281 L 92.1387 -60.4492 C 92.1387 -65.8691 90.8203 -67.6758 85.5957 -69.6777 C 76.2695 -73.1934 67.2852 -76.9531 57.959 -80.2246 C 56.6895 -80.6641 55.6641 -80.957 54.4434 -80.957 C 53.2715 -80.957 52.2461 -80.6641 50.9766 -80.2246 C 41.6992 -76.709 32.6172 -73.1934 23.3398 -69.6777 C 18.1152 -67.7734 16.7969 -65.8691 16.7969 -60.4492 L 16.7969 -23.8281 C 16.7969 -9.0332 25 -4.6875 51.2695 12.0117 C 52.0996 12.5 53.3203 13.1348 54.4434 13.1348 Z M 54.4434 -26.0742 C 53.418 -26.0742 52.6855 -27.002 52.6855 -28.2715 L 52.3438 -56.0547 C 52.3438 -57.4219 53.125 -58.252 54.4434 -58.252 C 55.8105 -58.252 56.5918 -57.4219 56.5918 -56.0547 L 56.25 -28.2715 C 56.25 -27.002 55.5176 -26.0742 54.4434 -26.0742 Z M 54.4434 -11.9141 C 52.5391 -11.9141 51.0742 -13.5254 51.0742 -15.332 C 51.0742 -17.0898 52.5391 -18.7012 54.4434 -18.7012 C 56.3965 -18.7012 57.8613 -17.0898 57.8613 -15.332 C 57.8613 -13.5254 56.3965 -11.9141 54.4434 -11.9141 Z"/>
  </g>
  <g id="Black-S" transform="matrix(1 0 0 1 2887.99 696)">
   <path d="M 45.4102 4.83398 C 46.3867 4.83398 47.6074 4.39453 48.6328 3.90625 C 71.2891 -6.88477 79.5898 -13.916 79.5898 -27.5391 L 79.5898 -54.1016 C 79.5898 -61.1328 77.7344 -64.4531 71.2402 -67.1875 C 68.3594 -68.4082 55.6641 -72.3145 53.2227 -72.998 C 50.8301 -73.6816 47.7051 -74.1699 45.4102 -74.1699 C 43.1152 -74.1699 39.9902 -73.6816 37.5977 -72.998 C 35.1562 -72.3145 22.4609 -68.4082 19.5801 -67.1875 C 13.0859 -64.4531 11.2305 -61.1328 11.2305 -54.1016 L 11.2305 -27.5391 C 11.2305 -13.916 19.5312 -6.88477 42.1875 3.90625 C 43.2129 4.39453 44.4336 4.83398 45.4102 4.83398 Z M 45.459 -30.957 C 42.1387 -30.957 40.2344 -32.7148 40.0391 -35.9863 L 39.3555 -47.5586 C 39.1602 -51.123 41.6504 -53.5156 45.4102 -53.5156 C 49.2188 -53.5156 51.6602 -51.123 51.4648 -47.5586 L 50.7812 -36.084 C 50.5859 -32.7148 48.7305 -30.957 45.459 -30.957 Z M 45.459 -15.5273 C 41.3574 -15.5273 39.1113 -17.4805 39.1113 -20.8984 C 39.1113 -24.2676 41.3574 -26.1719 45.459 -26.1719 C 49.3652 -26.1719 51.709 -24.2188 51.709 -20.8984 C 51.709 -17.4805 49.4629 -15.5273 45.459 -15.5273 Z"/>
  </g>
  <g id="Heavy-S" transform="matrix(1 0 0 1 2590.96 696)">
   <path d="M 45.7031 4.54102 C 46.582 4.54102 47.7539 4.15039 48.7793 3.66211 C 71.2891 -7.22656 79.2969 -14.0137 79.2969 -27.7832 L 79.2969 -54.8828 C 79.2969 -61.1816 77.4414 -64.0137 71.7773 -66.4062 C 68.6523 -67.7246 55.2246 -72.0215 52.4414 -72.8516 C 50.3906 -73.4863 47.7539 -73.877 45.7031 -73.877 C 43.7012 -73.877 41.0645 -73.4375 38.9648 -72.8516 C 36.1816 -72.0703 22.7539 -67.7246 19.6289 -66.4062 C 13.9648 -64.0137 12.1094 -61.1816 12.1094 -54.8828 L 12.1094 -27.7832 C 12.1094 -14.0137 20.2637 -7.37305 42.6758 3.66211 C 43.7012 4.15039 44.8242 4.54102 45.7031 4.54102 Z M 45.752 -30.7129 C 42.6758 -30.7129 40.918 -32.3242 40.7715 -35.3516 L 40.0879 -48.5352 C 39.9414 -51.8066 42.2852 -54.0039 45.7031 -54.0039 C 49.1699 -54.0039 51.4648 -51.7578 51.3184 -48.5352 L 50.6348 -35.4492 C 50.4883 -32.3242 48.7793 -30.7129 45.752 -30.7129 Z M 45.752 -15.4297 C 42.0898 -15.4297 39.7949 -17.3828 39.7949 -20.5566 C 39.7949 -23.7793 42.041 -25.6348 45.752 -25.6348 C 49.3164 -25.6348 51.6113 -23.7305 51.6113 -20.5566 C 51.6113 -17.334 49.3652 -15.4297 45.752 -15.4297 Z"/>
  </g>
  <g id="Bold-S" transform="matrix(1 0 0 1 2293.91 696)">
   <path d="M 46.0449 4.19922 C 46.8262 4.19922 47.9004 3.85742 48.9258 3.36914 C 71.2402 -7.56836 79.0039 -14.1602 79.0039 -28.0273 L 79.0039 -55.7617 C 79.0039 -61.2305 77.1484 -63.4766 72.3633 -65.5273 C 68.9941 -66.9434 54.7363 -71.7285 51.6113 -72.7051 C 49.9023 -73.2422 47.7539 -73.584 46.0449 -73.584 C 44.3359 -73.584 42.2363 -73.1934 40.5273 -72.7051 C 37.3535 -71.8262 23.1445 -66.9434 19.7266 -65.5273 C 14.9902 -63.5254 13.1348 -61.2305 13.1348 -55.7617 L 13.1348 -28.0273 C 13.1348 -14.1602 21.0938 -7.95898 43.1641 3.36914 C 44.2383 3.90625 45.3125 4.19922 46.0449 4.19922 Z M 46.0938 -30.4199 C 43.3105 -30.4199 41.6992 -31.8848 41.6016 -34.668 L 40.9668 -49.6094 C 40.8203 -52.5391 42.9688 -54.5898 46.0449 -54.5898 C 49.1211 -54.5898 51.2695 -52.4902 51.123 -49.5605 L 50.4883 -34.7168 C 50.3418 -31.8848 48.8281 -30.4199 46.0938 -30.4199 Z M 46.0938 -15.332 C 42.8711 -15.332 40.5762 -17.2363 40.5762 -20.2148 C 40.5762 -23.1934 42.8223 -25.0977 46.0938 -25.0977 C 49.2188 -25.0977 51.5137 -23.1934 51.5137 -20.2148 C 51.5137 -17.1875 49.2676 -15.332 46.0938 -15.332 Z"/>
  </g>
  <g id="Semibold-S" transform="matrix(1 0 0 1 1996.98 696)">
   <path d="M 46.2891 3.95508 C 46.9727 3.95508 47.998 3.66211 49.0723 3.17383 C 71.2402 -7.8125 78.7598 -14.209 78.7598 -28.2227 L 78.7598 -56.3965 C 78.7598 -61.2793 76.9043 -63.1348 72.8027 -64.8926 C 69.2383 -66.4062 54.3945 -71.5332 50.9766 -72.6074 C 49.5117 -73.0957 47.8027 -73.3887 46.2891 -73.3887 C 44.8242 -73.3887 43.0664 -73.0469 41.6016 -72.6074 C 38.1836 -71.6309 23.3398 -66.4062 19.7754 -64.8926 C 15.6738 -63.1836 13.8184 -61.2793 13.8184 -56.3965 L 13.8184 -28.2227 C 13.8184 -14.209 21.6309 -8.34961 43.5547 3.17383 C 44.5801 3.71094 45.6055 3.95508 46.2891 3.95508 Z M 46.2891 -30.1758 C 43.7012 -30.1758 42.2852 -31.5918 42.1387 -34.1797 L 41.5527 -50.3418 C 41.4062 -53.0273 43.4082 -54.9805 46.2402 -54.9805 C 49.0723 -54.9805 51.1719 -53.0273 51.0254 -50.3418 L 50.3906 -34.2285 C 50.2441 -31.543 48.8281 -30.1758 46.2891 -30.1758 Z M 46.2891 -15.2344 C 43.4082 -15.2344 41.1133 -17.1387 41.1133 -19.9707 C 41.1133 -22.8027 43.3594 -24.6582 46.2891 -24.6582 C 49.1699 -24.6582 51.4648 -22.8027 51.4648 -19.9707 C 51.4648 -17.0898 49.1699 -15.2344 46.2891 -15.2344 Z"/>
  </g>
  <g id="Medium-S" transform="matrix(1 0 0 1 1700.07 696)">
   <path d="M 46.4844 3.75977 C 47.1191 3.75977 48.0957 3.56445 49.1211 3.02734 C 71.2402 -8.00781 78.6133 -14.3066 78.6133 -28.3691 L 78.6133 -56.8359 C 78.6133 -61.2793 76.7578 -62.8906 73.0957 -64.4531 C 69.3848 -66.0156 54.1504 -71.3867 50.5371 -72.5586 C 49.2676 -72.9492 47.8027 -73.1934 46.4844 -73.1934 C 45.166 -73.1934 43.7012 -72.9004 42.4316 -72.5586 C 38.7695 -71.4844 23.5352 -65.9668 19.8242 -64.4531 C 16.2109 -62.9395 14.3555 -61.2793 14.3555 -56.8359 L 14.3555 -28.3691 C 14.3555 -14.3066 22.0703 -8.64258 43.7988 3.02734 C 44.873 3.56445 45.8496 3.75977 46.4844 3.75977 Z M 46.4844 -30.0293 C 44.043 -30.0293 42.6758 -31.3477 42.5781 -33.8379 L 41.9922 -50.9277 C 41.8457 -53.418 43.7988 -55.2734 46.4355 -55.2734 C 49.0723 -55.2734 51.0254 -53.3691 50.9277 -50.8789 L 50.293 -33.8379 C 50.1953 -31.3477 48.877 -30.0293 46.4844 -30.0293 Z M 46.4844 -15.1855 C 43.7988 -15.1855 41.5527 -17.041 41.5527 -19.7754 C 41.5527 -22.5098 43.7988 -24.3652 46.4844 -24.3652 C 49.1699 -24.3652 51.416 -22.5098 51.416 -19.7754 C 51.416 -17.041 49.1211 -15.1855 46.4844 -15.1855 Z"/>
  </g>
  <g id="Regular-S" transform="matrix(1 0 0 1 1403.14 696)">
   <path d="M 46.7285 3.51562 C 47.2656 3.51562 48.1934 3.36914 49.2676 2.83203 C 71.1914 -8.25195 78.3691 -14.3555 78.3691 -28.5156 L 78.3691 -57.4219 C 78.3691 -61.3281 76.5137 -62.5488 73.5352 -63.8184 C 69.6289 -65.4785 53.8086 -71.1426 49.9512 -72.4609 C 48.9258 -72.8027 47.8027 -72.998 46.7285 -72.998 C 45.6055 -72.998 44.4824 -72.7539 43.457 -72.4609 C 39.5508 -71.2891 23.7793 -65.4297 19.873 -63.8184 C 16.8945 -62.5977 15.0391 -61.3281 15.0391 -57.4219 L 15.0391 -28.5156 C 15.0391 -14.3555 22.6562 -9.0332 44.1895 2.83203 C 45.2148 3.41797 46.1426 3.51562 46.7285 3.51562 Z M 46.7285 -29.834 C 44.4336 -29.834 43.2129 -31.0547 43.1152 -33.3496 L 42.5293 -51.6602 C 42.4316 -53.9551 44.2383 -55.6152 46.6797 -55.6152 C 49.0234 -55.6152 50.9277 -53.9062 50.8301 -51.6113 L 50.1953 -33.3496 C 50.0977 -31.0059 48.877 -29.834 46.7285 -29.834 Z M 46.7285 -15.0879 C 44.3848 -15.0879 42.0898 -16.9434 42.0898 -19.5312 C 42.0898 -22.1191 44.3359 -23.9746 46.7285 -23.9746 C 49.1211 -23.9746 51.3184 -22.168 51.3184 -19.5312 C 51.3184 -16.8945 49.0723 -15.0879 46.7285 -15.0879 Z"/>
  </g>
  <g id="Light-S" transform="matrix(1 0 0 1 1107.7 696)">
   <path d="M 45.459 3.27148 C 46.0938 3.27148 47.0703 2.97852 47.9492 2.49023 C 69.5801 -9.13086 76.416 -14.4531 76.416 -27.832 L 76.416 -56.6895 C 76.416 -60.6445 74.8535 -61.9629 71.4844 -63.3301 C 66.5527 -65.332 53.4668 -70.166 48.5352 -71.8262 C 47.5098 -72.168 46.4844 -72.4121 45.459 -72.4121 C 44.3848 -72.4121 43.3594 -72.168 42.3828 -71.8262 C 37.4023 -70.166 24.3164 -65.2832 19.3848 -63.3301 C 16.0645 -62.0117 14.4531 -60.6445 14.4531 -56.6895 L 14.4531 -27.832 C 14.4531 -14.4531 21.6797 -9.7168 42.9199 2.49023 C 43.8477 3.02734 44.7754 3.27148 45.459 3.27148 Z M 45.459 -29.2969 C 43.6523 -29.2969 42.627 -30.3711 42.5293 -32.2266 L 42.041 -51.6113 C 41.9922 -53.5156 43.4082 -54.8828 45.4102 -54.8828 C 47.3633 -54.8828 48.877 -53.4668 48.7793 -51.6113 L 48.291 -32.2266 C 48.2422 -30.3223 47.168 -29.2969 45.459 -29.2969 Z M 45.459 -15.6738 C 43.3594 -15.6738 41.4062 -17.3828 41.4062 -19.5801 C 41.4062 -21.7773 43.3105 -23.4375 45.459 -23.4375 C 47.5586 -23.4375 49.4629 -21.8262 49.4629 -19.5801 C 49.4629 -17.334 47.5098 -15.6738 45.459 -15.6738 Z"/>
  </g>
  <g id="Thin-S" transform="matrix(1 0 0 1 812.648 696)">
   <path d="M 43.75 2.92969 C 44.5801 2.92969 45.5078 2.49023 46.2891 2.09961 C 67.3828 -10.2539 73.877 -14.5996 73.877 -26.9043 L 73.877 -55.6641 C 73.877 -59.8145 72.6074 -61.1816 68.7988 -62.6953 C 62.4512 -65.1367 53.0273 -68.7988 46.6309 -71.0449 C 45.6543 -71.3867 44.7266 -71.582 43.75 -71.582 C 42.7734 -71.582 41.8945 -71.3379 40.918 -71.0449 C 34.5703 -68.7012 25.0488 -65.1367 18.7012 -62.6953 C 14.8926 -61.2305 13.6719 -59.8145 13.6719 -55.6641 L 13.6719 -26.9043 C 13.6719 -14.5996 20.4102 -10.6934 41.2598 2.09961 C 41.9922 2.53906 42.9688 2.92969 43.75 2.92969 Z M 43.75 -28.5645 C 42.5781 -28.5645 41.7969 -29.3945 41.7969 -30.7617 L 41.4062 -51.6113 C 41.4062 -52.9785 42.334 -53.9551 43.75 -53.9551 C 45.166 -53.9551 46.1426 -52.9785 46.0938 -51.5625 L 45.752 -30.7617 C 45.7031 -29.3945 44.9707 -28.5645 43.75 -28.5645 Z M 43.75 -16.4551 C 42.041 -16.4551 40.5762 -17.8711 40.5762 -19.5801 C 40.5762 -21.3379 42.041 -22.7539 43.75 -22.7539 C 45.5078 -22.7539 46.9727 -21.3379 46.9727 -19.5801 C 46.9727 -17.8711 45.5078 -16.4551 43.75 -16.4551 Z"/>
  </g>
  <g id="Ultralight-S" transform="matrix(1 0 0 1 516.791 696)">
   <path d="M 42.9199 2.73438 C 43.7988 2.73438 44.7754 2.24609 45.4102 1.85547 C 66.2598 -10.8398 72.5586 -14.6973 72.5586 -26.416 L 72.5586 -55.127 C 72.5586 -59.375 71.4844 -60.791 67.4316 -62.3535 C 60.4004 -65.0391 52.7832 -68.1152 45.6543 -70.6055 C 44.6777 -70.9473 43.8477 -71.1914 42.9199 -71.1914 C 41.9922 -71.1914 41.1133 -70.9473 40.1367 -70.6055 C 33.1055 -67.9688 25.4395 -64.9902 18.3594 -62.3535 C 14.3555 -60.8398 13.2812 -59.375 13.2812 -55.127 L 13.2812 -26.416 C 13.2812 -14.6973 19.7754 -11.1816 40.4297 1.85547 C 41.0645 2.24609 42.041 2.73438 42.9199 2.73438 Z M 42.9199 -28.1738 C 41.9922 -28.1738 41.4062 -28.9062 41.4062 -30.0293 L 41.0645 -51.5625 C 41.0645 -52.6855 41.748 -53.418 42.9199 -53.418 C 44.043 -53.418 44.7266 -52.6855 44.7266 -51.5625 L 44.4336 -30.0293 C 44.4336 -28.9062 43.7988 -28.1738 42.9199 -28.1738 Z M 42.9199 -16.8457 C 41.3574 -16.8457 40.1367 -18.1641 40.1367 -19.6289 C 40.1367 -21.0938 41.3574 -22.4121 42.9199 -22.4121 C 44.4824 -22.4121 45.7031 -21.0938 45.7031 -19.6289 C 45.7031 -18.1641 44.4824 -16.8457 42.9199 -16.8457 Z"/>
  </g>
 </g>
</svg>
